<svg id="Layer_1" data-name="Layer 1" xmlns="http://www.w3.org/2000/svg" viewBox="0 0 1246.78 603.91" preserveAspectRatio="none">
  <defs>
    <style>
      .cls-1 {
        fill: #fefefe;
      }

      .cls-2 {
        fill: #e6f2fe;
      }

      .cls-3 {
        fill: #283347;
      }

      .cls-4 {
        fill: #c4d6e0;
      }

      .cls-5 {
        fill: #06bab5;
      }

      .cls-6 {
        fill: #0197fd;
      }

      .cls-7 {
        fill: #224262;
      }

      .cls-8 {
        fill: #c6d7e1;
      }

      .cls-9 {
        fill: #06bbb6;
      }

      .cls-10 {
        fill: #19598d;
      }

      .cls-11 {
        fill: #0b7ccc;
      }

      .cls-12 {
        fill: #06bab6;
      }

      .cls-13 {
        fill: #16619a;
      }

      .cls-14 {
        fill: #1368a7;
      }

      .cls-15 {
        fill: #cbdae2;
      }

      .cls-16 {
        fill: #1070b5;
      }

      .cls-17 {
        fill: #078598;
      }

      .cls-18 {
        fill: #078297;
      }

      .cls-19 {
        fill: #e6f2fd;
      }

      .cls-20 {
        fill: #088598;
      }

      .cls-21 {
        fill: #283247;
      }

      .cls-22 {
        fill: #078195;
      }

      .cls-23 {
        fill: #078196;
      }

      .cls-24 {
        fill: #0399fb;
      }

      .cls-25 {
        fill: #0398fa;
      }

      .cls-26 {
        fill: #077e94;
      }

      .cls-27 {
        fill: #0498fb;
      }

      .cls-28 {
        fill: #0299fb;
      }

      .cls-29 {
        fill: #cad9e1;
      }

      .cls-30 {
        fill: #059afb;
      }

      .cls-31 {
        fill: #0599fa;
      }

      .cls-32 {
        fill: #c8d8e0;
      }

      .cls-33 {
        fill: #091429;
      }

      .cls-34 {
        fill: #2a2b3a;
      }

      .cls-35 {
        fill: #2e222a;
      }

      .cls-36 {
        fill: #2d2129;
      }

      .cls-37 {
        fill: #116bad;
      }

      .cls-38 {
        fill: #185c92;
      }

      .cls-39 {
        fill: #224364;
      }

      .cls-40 {
        fill: #1c517d;
      }

      .cls-41 {
        fill: #c5d7e0;
      }

      .cls-42 {
        fill: #081228;
      }

      .cls-43 {
        fill: #e5f1fd;
      }

      .cls-44 {
        fill: #0d152a;
      }

      .cls-45 {
        fill: #040f21;
      }

      .cls-46 {
        fill: #071228;
      }

      .cls-47 {
        fill: #081227;
      }

      .cls-48 {
        fill: #1f4b72;
      }

      .cls-49 {
        fill: #0e75bf;
      }

      .cls-50 {
        fill: #116db0;
      }

      .cls-51 {
        fill: #078094;
      }

      .cls-52 {
        fill: #088498;
      }

      .cls-53 {
        fill: #077d94;
      }

      .cls-54 {
        fill: #283346;
      }

      .cls-55 {
        fill: #273245;
      }

      .cls-56 {
        fill: #c5d6df;
      }

      .cls-57 {
        fill: #078498;
      }

      .cls-58 {
        fill: #c4d6df;
      }

      .cls-59 {
        fill: #273246;
      }
    </style>
  </defs>
  <title>404</title>
  <g>
    <path class="cls-1" d="M926,239h659V842.91H338.18V239H784c-.07,3.44-3,3.53-5.23,4.37-15.74,6-32.19,8.14-48.88,9.23a101.7,101.7,0,0,0-40.31,10.67,22.24,22.24,0,0,0-3.05,1.71c-.29.22-.46.48-.58,1.49h405.11c-.63-2.33-2.38-3.05-3.75-4-12.89-8.56-27.21-13.13-42.49-14.95-18.7-2.22-37.17-.4-55.75,2-19.46,2.5-39,2.21-57.51-5.73C929.27,242.83,926.16,242.54,926,239Z" transform="translate(-338.18 -239)"/>
    <path class="cls-2" d="M926,239c4.43,4.1,10.31,5.13,15.71,6.83,13.86,4.35,28.3,3.79,42.51,2.92,8.82-.53,17.63-2.77,26.5-3.38a181.72,181.72,0,0,1,29.87.23,121,121,0,0,1,23.85,4.45,85.78,85.78,0,0,1,29.36,15.29,19.28,19.28,0,0,1,1.92,2.24H680.94c3.85-4.69,8.81-6.54,13.36-8.36A111.94,111.94,0,0,1,731.45,251a166.21,166.21,0,0,0,49.92-9.89A4,4,0,0,0,784,239Z" transform="translate(-338.18 -239)"/>
    <path class="cls-3" d="M1095.87,561c6.71-11.05,13.48-22.06,20.11-33.16q17.36-29.05,34.57-58.18c16.45-27.67,33-55.29,49.26-83,1.69-2.86,3.41-3.79,6.63-3.78q51,.17,101.92,0c3.84,0,4.62,1.07,4.6,4.73-.14,22.48,0,45,0,67.43,0,.23-.08.47-.11.7-1.59,2.78-4.13,4.71-6.33,6.93-13.3,13.38-26.68,26.67-40,40.05q-15.12,14.94-30,30.07c-3.4,2.27-4.86,7.12-9.77,7.42a4,4,0,0,1-.84-1.44c-.74-7.45-.26-14.92-.32-22.37-.16-19.41.16-38.81-.17-58.15-2.91,1.82-3.65,5.07-5.14,7.73-12.84,22.78-25.94,45.4-38.5,68.34-8.17,13.64-15.82,27.59-23.57,41.46a1.61,1.61,0,0,0-.11,1.68c15,.73,30,.13,45,.31,4.83.05,9.66,0,14.49,0,1.94,0,4-.12,5.72,1.7-1.71,2.22-4,1.94-6,2-7.67.08-15.33,0-23,0a14.86,14.86,0,0,0-5.43.58c-4.42,1.69-5.65,5.78-2.26,9,6.37,6.07,12.41,12.5,19.1,18.24,1,.87,2.06,1.68,3,2.63,4.17,4.26,5.45,4.35,9.81.12,8.12-7.89,16-16,24.07-24,8.46-8,16.48-16.36,24.72-24.54q11.7-11.51,23.19-23.21c6.16-6.05,12.11-12.3,18.39-18.22,1.34-1.26,3.24-4.5,5.21-.3.87,10,.29,20.11.36,30.16.16,6,0,12,.06,18,.06,6.3.27,6.54,6.39,6.59,4.66,0,9.33,0,14,.07,3.15-.18,6.29-.06,9.43,0,10.61-.45,11.23.16,11.26,10.88q0,17.16-.13,34.31c.22,5,.16,10,0,14.93-.15,5.7-1.89,7.56-7.84,6.7-8.94-1.28-17.88-.76-26.82-.92-1.95,0-4-.39-5.49,1.5-1,2.05-.76,4.25-.77,6.39,0,10.66,0,21.32,0,32a15.15,15.15,0,0,1-.72,5.9c-2.3,2.9-4.14.54-5.86-.69-17.34-12.35-36.8-17.93-57.9-18-6.81,0-13.49,1.48-20.13,3-2.21.5-4.55,1.39-6.53-.69-2-8-.53-16.13-.89-24.19-.08-1.78.57-3.67-.88-5.2-2.12-1.49-4.53-.91-6.81-.91q-67.85-.06-135.7,0c-1.83,0-3.66,0-5.48,0-3.24-.07-5-1.69-5-4.92,0-10-.57-20,.34-29.89a11.71,11.71,0,0,1,1.84-5.6c7.12-12.2,14.72-24.11,21.66-36.41A7.49,7.49,0,0,1,1095.87,561Z" transform="translate(-338.18 -239)"/>
    <path class="cls-3" d="M688,702c-1.14,1.95-3,.87-4.43.87Q642.27,703,601,703a2.39,2.39,0,0,1-.11-1.8c.26-18.57.05-37.13.1-55.69,0-1.31.17-2.68-.83-3.78-9.22-1.55-18.5-.62-27.74-.51-8.79.09-17.57.62-26.34-.26-2.77-1.62-1.4-4.08-1.1-6.19.89-6.36,2.28-12.69,1.44-19.14-.42-3.17-.54-6.8-4.85-7.59a6,6,0,0,0-3.34,1.19c-5.24,3.14-8.31,7.78-10,13.6-1.47,4.91-2.88,9.84-4.53,14.69-.73,2.16-1.24,4.54-3.78,5.51A93.75,93.75,0,0,1,490,641.39c-2.69-5.12-1.13-10.57-1.25-15.88.73-5,5.82-6.4,8.39-9.89a30.39,30.39,0,0,0,2.47-2.85C521.44,589,536.11,561.45,542,529.52c2.24-12.18,3.07-24.39-.81-36.49-2.52-7.87-6.09-15.07-12.43-20.63-1-.87-2.1-1.7-1.94-3.27q24.39-41.1,48.77-82.22c1.36-2.3,2.51-4.17,6-4.15,34.67.18,69.34.11,104,.12a16.87,16.87,0,0,1,2.44.35c.9,1.56.45,3.26.45,4.89q0,92.24,0,184.49c0,1.72.63,3.6-.93,5.58-2.13-1.8-1.9-4.15-1.91-6.33-.06-12.17,0-24.33-.05-36.5,0-1.64.31-3.32-.61-5.69-5,4.73-9.62,9.4-14.27,14-8.53,8.43-16.85,17.07-25.38,25.52a30.89,30.89,0,0,0-6.1,8.46c-1.07,2.2-.59,3.62,1.46,5a42.26,42.26,0,0,1,12.42,12.63c2.54,4.14,6.23,7.37,9.19,11.18,1.22,1.57,2.31,1.25,3.82.32a56.54,56.54,0,0,0,11.79-9.12c4.66-5,9.59-9.73,14.47-14.52,1.64-1.62,3.11-3.53,5.57-4.06,8.81-.24,17.61,0,26.41-.16,3.4-.08,5,1.37,5,4.63q.2,26.4,0,52.81c0,3.74-2.21,4.64-5.56,4.64-10.95,0-21.92-.2-32.87.09a3.28,3.28,0,0,0-1.65.9c-1,1.52-.5,3.24-.5,4.85,0,16.63,0,33.26-.08,49.89,0,1.73.75,3.64-.7,5.21-1-2.92-.43-5.94-.44-8.9-.06-16.15,0-32.3,0-48.46q0,26,0,52C687.51,698.39,687,700.26,688,702Z" transform="translate(-338.18 -239)"/>
    <path class="cls-3" d="M1038.78,463.09c8.21,20,12,41,12.33,62.55.18,12.12,0,24.23,0,36.35,2.76,4.53.52,9.19,0,13.64-2.89,23.68-9.16,46.32-21.41,67.06-14,23.66-33.31,41.31-58.31,52.7-3.42,1.56-6.65,3.9-10.74,3.42A186.94,186.94,0,0,1,893.44,708a181.39,181.39,0,0,1-49.23-9.12,58.71,58.71,0,0,1-27.4-13.58c-.52-2.41,1.33-3.62,2.68-5q24.4-24.52,48.92-49c1.76-1.75,3.48-3.7,6.4-3.14,9.62,4.37,19.44,7.57,30.26,7.45,22.52-.26,38.37-11.19,45.88-32.49,4.69-13.3,6.57-27.12,6.87-41.19a9.86,9.86,0,0,1,.31-1.62c1.21-6-.08-12.11.76-18.13,2.24-5,7-7.84,10.43-11.77,1.86-2.1,3.94-4,5.92-6,5.82-5.64,11.5-11.43,17.2-17.19,13.65-13.51,27.14-27.17,40.79-40.68C1034.78,465.12,1036,462.76,1038.78,463.09Z" transform="translate(-338.18 -239)"/>
    <path class="cls-3" d="M756,550c.62-10-.57-20.06,1.1-30a19.83,19.83,0,0,1,4.23-5.45q17.57-17.53,35.09-35.12c9.73-9.6,19.36-19.32,29-29,9.08-8.95,18.06-18,27-27,13.4-13.27,26.69-26.66,40-40a19.64,19.64,0,0,1,5.9-4.43c11.17-1.39,22.28-.24,33.26,1.4,21.94,3.29,42.51,10.55,60.88,23.34A111.82,111.82,0,0,1,1014,422.75c-.25,2.21-2,3.37-3.39,4.76-8.66,8.72-17.39,17.37-26,26.11-8.88,8.73-17.6,17.61-26.45,26.37-1.4,1.38-2.58,3.09-4.69,3.57a2.7,2.7,0,0,1-1.49-.38c-2-1.92-2.74-4.55-3.86-6.94-8.66-18.45-23.39-26.6-43.49-27-18-.34-32.13,6.06-42,21.14-5.29,8.06-7.82,17.25-9.83,26.56a145.43,145.43,0,0,0-3.37,31.2c.05,18.29-.69,36.61,1.93,54.8.15,3.71-2.16,6.09-4.55,8.48C828.2,610,809.71,628.62,791,647c-2.3,2.27-3.34,5.52-6.23,7.21-4.4-3.11-6.21-8.07-8.69-12.47a162.43,162.43,0,0,1-8.42-17.42c-7.33-17.88-11-36.56-12.08-55.77-.24-4.15-1.27-8.23-1-12.41C754.68,554,754.4,551.8,756,550Z" transform="translate(-338.18 -239)"/>
    <path class="cls-4" d="M1441,463.05c2.24,13.13,4.57,26.24,15.3,35.73,4.64,4.11,10.45,6.36,15.65,9.58a57.11,57.11,0,0,1,14.47,12.82c6.35,7.89,6.88,16.81,3.94,26.32-4.68,15.12-11.61,29.26-18.34,43.49-5,13.59-12.27,26.2-17.32,39.79-6.59,17.76-11.29,35.89-11.89,54.89-.14,4.29.74,8.61,1,12.93.15,2.22-.16,3.92-3.09,3.91-22-.1-44,.09-66-.12a2.61,2.61,0,0,1-1.33-.63c-2-2.78.66-4.35,1.92-5.9a166.86,166.86,0,0,0,16.22-24.47,123.14,123.14,0,0,0,14.48-40.62,15.35,15.35,0,0,0-.64-8.29,2.35,2.35,0,0,0-1.58-1c-3,0-4.87,1.86-6.77,3.73-9.31,9.21-15.5,20.56-21.72,31.88-2.15,3.91-3.92,8-6.09,11.94-.76,1.37-1.1,3.75-3.74,2.79-2.35-4.11-2.43-8.78-3.29-13.26.44-4.09,3.09-7.26,4.58-10.91.56-1.11,1.08-2.24,1.64-3.36,15.09-32.47,34.62-63.16,40-99.55,3.64-5,8.5-8.8,12.22-13.73,12-16,17.71-34,18-53.79,0-3.31-.16-6.64.09-9.95C1438.86,465.64,1438.24,463.37,1441,463.05Z" transform="translate(-338.18 -239)"/>
    <path class="cls-2" d="M960.62,698.81c19.56-7.7,37-18.49,51.32-34.14,20-21.92,30.77-48.15,36.1-76.95A227.13,227.13,0,0,0,1051.1,562a25,25,0,0,1,6.84-1c11.44.19,22.87.14,34.19-1.88,1.86-.33,2.7.84,3.74,1.87q-11.92,20.31-23.83,40.63c-.66,1.13-1.26,2.31-1.88,3.46-1.45,11-.3,21.94-.68,32.91-.07,2,.93,2.65,2.75,2.56,1.17,0,2.33,0,3.5,0q71.49,0,143,0c1.73,0,3.67-.8,5.22.73,1.07,10.27.12,20.57.48,30.86-.41,1.74-1.88,2.26-3.3,2.63-10.24,2.69-20.26,6.17-30.54,8.72a6.18,6.18,0,0,1-4.36,0c-2-1.86-.91-4.05-.5-6.05a60.21,60.21,0,0,0,1-14.31c-4,3-5.93,7-7.19,11.6-1,3.49-.6,7.25-2.3,10.58-2,1.38-3.67,1.47-5-.83-1.22-5.14-.58-10.34-.52-15.52a108.38,108.38,0,0,0,11.48-17.58c1.08-2,2.63-3.83,2.86-6.23-1.29-1.37-2.87-.8-4.28-.81-12.63,0-25.27.06-37.9-.07a17.3,17.3,0,0,0-11.11,3.55c-16.48,12.39-32.27,25.61-47.63,39.36-4.7,4.21-9.49,8.31-14.29,13.51,4.85.05,9.2-.12,13.54.09,1.75.08,4.16-.66,4.64,2.25-43.59-1.54-87.21-.86-130.92-1.06.16-2.06,2.25-1.45,3.11-2.41.05-.06-.06-.32-.15-.44A1.74,1.74,0,0,0,960.62,698.81Z" transform="translate(-338.18 -239)"/>
    <path class="cls-2" d="M1441,463.05c-2,2.69-.93,5.79-.89,8.65.18,13-1.35,25.69-6.06,38a85.32,85.32,0,0,1-24.93,35.3c-1.76-1.53-1.27-3.64-1.46-5.58-.89-9.3-2.1-18.53-7-26.76-.94-1-1.65-2.27-3.23-2.36-3.11.95-3.68,3.64-4.18,6.24a274,274,0,0,1-12.62,44.42c-.81,2.15-1.2,4.53-3.26,6-2,1.15-3.93,2.46-6,3.51-4.72,2.43-8.85,5.22-8.36,11.47a2.44,2.44,0,0,1-1.51,2.13c-2.71-2.16-1.42-5.38-2-8.09-.46-15.13.79-30.29-.9-45.38.49-7.66-2-15.12-1.56-22.77a59.89,59.89,0,0,0,6.75-14.89c2.9-10.09-.92-14.34-11.39-12.17-10,2.07-19.23,6.26-28.26,10.89-2.66,1.37-5.28,2.81-8,4-1.52.68-3.21,1.39-4.13-.93-.62-13.29-1.69-26.58.62-39.81h.39c19.41-10.81,40.37-17.64,62-21.46,13.73-2.43,28.08-3.53,41.92.69C1431.16,438.49,1439.72,447.81,1441,463.05Z" transform="translate(-338.18 -239)"/>
    <path class="cls-5" d="M520.94,641.54q3.13-10,6.27-19.93c1.86-5.92,5.06-10.79,10.77-13.68,3.49,1,2.42,4,2.16,6.1a118.71,118.71,0,0,1-7.32,29.37C525.35,662,513.89,678,501.67,693.56c-5.31,6.77-9.29,14.1-10.43,22.77a5.65,5.65,0,0,1-1.14,2.73l-4,3c-1.94,1.9-4.54,2.68-6.84,4-7.71,4.39-9.49,8.35-8.49,17.18,1.47,12.85,3.73,25.55,6.05,38.26.42,2.27.93,4.59-.55,6.73-3.5,1.93-6.16.05-8.8-1.95a114.78,114.78,0,0,1-8.87-31,53,53,0,0,1,.5-19.28c1.63-7.74,7-13.05,11.55-19,6.2-8.1,9.41-16.91,7.22-27.43-2.25-10.82-6.78-20.85-9.81-31.38a178,178,0,0,1-5.54-31.33c-1.13-11.15-.82-22.27-.84-33.41A219.7,219.7,0,0,1,471,529c4-13.22,5.16-26.71,4.65-40.44-.1-2.58-.72-5.37,1.25-7.67,3.06-.33,4.87,1.55,6.59,3.67,7.52,9.33,9.49,20.61,11.23,32,.25,1.61-.18,3.34.77,4.85.88,1,.66,2.23.73,3.4,2.5,16-5.32,28.17-14.63,39.74a41.83,41.83,0,0,0-6.32,11.23,10,10,0,0,0-.66,5.86c.79,3.55,2.09,4.1,5,1.75a151.17,151.17,0,0,0,12-10.47,119.86,119.86,0,0,0,21.61-28.59,36.55,36.55,0,0,0,4.45-17.21c.29-11-1-21.93-2.23-32.84a13.94,13.94,0,0,1,.37-6.39c.09-4.73-1.14-9.45.1-14.19.65-2.44,1.31-4.75,4.13-5.51,2.21.81,3.33,2.61,4.32,4.59,4.42,8.78,6.33,18.21,6.9,27.89,1.23,20.82-3.08,40.68-11.24,59.75-3.48,8.14-9.14,15-13.42,22.75-5.35,9.63-9.07,19.61-8.27,30.86a4.93,4.93,0,0,1-.37,2l-8,8c-2,3.89-5.35,6.75-7.49,10.52-1.07,1.87-2.37,3.6-3.29,5.57-5.34,11.41-3.67,17.45,6.8,24.56a21,21,0,0,1,3.33,2.18c2,5.15.4,10.53,1,16.22,3.26-1.18,5.56-3.51,7.95-5.63,9.2-8.17,15.39-18.31,19.38-29.85C518.4,645.34,519.15,643.16,520.94,641.54Z" transform="translate(-338.18 -239)"/>
    <path class="cls-2" d="M756,550c.57,19.74,2,39.38,7.74,58.43,1.67,5.54,3.56,11,5.34,16.5a1.43,1.43,0,0,1-.25,2.17c-13.06,9.71-25.64,20-39,29.41-13,9.16-20.91,22.66-24.61,38.3-1.33,5.65-1.11,5.82,4.94,5.82q35.49,0,71,0c2.47,0,5-.4,7.38.79l.55.58c-1.49,1.6-3.44.94-5.2.94-25.8,0-51.6,0-77.4,0-4.65,0-9.15-1.46-13.85-1.09-3.18.24-2.56-2.4-2.56-4.28,0-12.15,0-24.3,0-36.45,0-4.66.17-9.33-.06-14-.16-3.28,1-4.33,4.28-4.28,11.32.16,22.64.06,34,0,.26,0,.7-.18.73-.34s-.19-.53-.31-.81a2.9,2.9,0,0,1,.16-1.79c.54-19.11,0-38.22.33-57.32,0-3.31-2.44-3.45-4.08-4.79-1.53-1.55-3.47-.88-5.23-.9-8.16-.06-16.33-.16-24.49,0-3.77.09-5.41-1-5.36-5.08.18-14,.15-28,0-42,0-3.6,1.2-4.7,4.87-5.12,9.56-1.11,19.11-1.72,28.74-2,7.26-.24,12.05,3.42,16.27,8.08,5.41,6,11,11.89,15.2,18.84C755.14,550,755.64,549.92,756,550Z" transform="translate(-338.18 -239)"/>
    <path class="cls-2" d="M1575.57,350.41c-2,1-3.81.57-5.59.57q-125.94,0-251.87,0c-1,0-2,0-3,0s-2.09.22-2.68-.83c-.75-1.31.25-2.14,1-3.05,7.26-9.25,16.92-14.45,28.47-15a316,316,0,0,0,73.66-12.57c9.79-2.85,19.67-5.87,29.89-7.18,8.37-1.08,16.5.24,24.53,2.5,13.14,3.69,25.37,9.84,38.26,14.18,8.42,2.84,16.77,5.31,26.09,4.15,15.24-1.9,28.41,3.39,39.42,14.05C1574.52,348,1575.58,348.7,1575.57,350.41Z" transform="translate(-338.18 -239)"/>
    <path class="cls-5" d="M453.14,752.36c1.91-6.94.87-14.1,1.57-21.13.81-8.09-.19-16.27,1.11-24.34,2.23,2,1.16,4.5,1,6.5,1.77-7.27,6-13.88,9.24-20.91,5.19-11.38,5-13.39-4.67-21.08-1.3-1-2.52-2.18-3.89-3.13a10.58,10.58,0,0,1-1.15-.84c-2.59-3-6.35-5-8.15-8.8-2.33-14-10.78-24.56-19.75-34.62-8.13-9.11-13.77-19.52-18.44-30.58a161.59,161.59,0,0,1-11.73-44.19c-1.7-14.48-2.71-29.07,1.62-43.4,5.77-1.66,8.17-.71,11.11,4.24,5.56,9.38,6,19.91,6.68,30.33a98,98,0,0,1-.45,18.44c-1.19,9.74,1.5,18.74,5.54,27.45a113.77,113.77,0,0,0,21.91,31.76c3.21.51,4.11,3.66,6.22,5.44a46.4,46.4,0,0,0,4.62,4.16c.24-14.36-.63-28.15,1.82-41.74q.72-17.16,1.44-34.33c.8-19.27,2.15-38.49,6.07-57.41,1.23-5.92,2.32-12.39,10-13.77a4.12,4.12,0,0,1,1,2.74c.6,15.48,0,30.84-4.49,45.83a232.8,232.8,0,0,0-8.68,46.76c-1.31,15-1.11,30-.57,44.89.7,19.48,5.49,38.26,12.55,56.52,3.13,8.12,5.58,16.64,3.33,25.75-1.83,7.39-5.75,13.41-10.83,18.77-8,8.4-9.42,18.5-8.68,29.5.71,10.56,3.44,20.56,7.06,30.39a3.78,3.78,0,0,1-.28,3.38c-2,1.6-3.83.8-5.58-.56-1.62-2.79-1.64-6-2.06-9a103.57,103.57,0,0,0-4-17.75C453.19,755.88,452.34,754.21,453.14,752.36Z" transform="translate(-338.18 -239)"/>
    <path class="cls-2" d="M460,783.89l5.07,1c1.28-.67,2.08.28,3,.89,2.61,1,5.13,2.26,8,2.32,2.27-.16,4.16,1,6.18,1.74a20.29,20.29,0,0,0,2.38.94c.63.17,1.26.37,1.87.6,1.08.63,2.77.64,2.65,2.53,1.09,2,1.09,2,4.58,0,1.63-.11,3.08.59,4.59,1a18.68,18.68,0,0,0,2.67.69c1.29.42,3.06.16,3.18,2.23l-2,.26c21.69.9,42.53,4.22,58.95,20.5H377.49c3.89-4.51,6.84-8.68,10.5-12.05,12.66-11.64,26.95-20.24,44.33-23,3.34-.53,6.6-.42,9.9-.63,1.61-.11,3.5.37,3.81-2.08,2.35-.06,4.54,1.19,6.92.83a12.34,12.34,0,0,1,2.19.24C456.83,782.41,458.57,782.71,460,783.89Z" transform="translate(-338.18 -239)"/>
    <path class="cls-2" d="M573,642c4.44,2.1,9.14.81,13.7.89C599,643.14,599,643,599,655.13c0,14-.1,28,.07,42,0,3.53-.69,5-4.64,5-25.16-.17-50.33-.09-75.49-.07a8.48,8.48,0,0,1-4.82-1,1.67,1.67,0,0,1,.25-2.24c6.65-7.24,11.37-15.9,17.49-23.53,8.24-7.25,15.85-15.19,24.5-22,3.52-2.78,7.25-5.31,11.24-8.71-5.87-.55-11.21-.14-16.52-.28a14.42,14.42,0,0,1-4.94-.5c-1-.4-1.75-1-.7-2.19C554.64,640.92,563.84,640.05,573,642Z" transform="translate(-338.18 -239)"/>
    <path class="cls-2" d="M449.12,659c2.25,3,6.29,4.21,7.76,8-4.86,4.53-10.14,8.55-15,13.1a177.31,177.31,0,0,0-16.58,17.88A14.15,14.15,0,0,1,421,702H351.94a74.51,74.51,0,0,1,10.29-14.59,120.93,120.93,0,0,1,24.16-22A135.78,135.78,0,0,1,430.86,646a3.1,3.1,0,0,0,2.14-1c2-.62,3,.94,4.12,2a95.06,95.06,0,0,0,9.21,8.16A16.11,16.11,0,0,1,449.12,659Z" transform="translate(-338.18 -239)"/>
    <path class="cls-3" d="M1299.11,703.4l3.16,4.58H1111.4l4.5-3.23a8.36,8.36,0,0,1,1.46-2,51.23,51.23,0,0,1,26.54-7.83c24.83-.64,48.91-5.25,72.79-11.5,27.35-7.16,52.43-1.29,75.86,13.51C1295.15,698.54,1298.08,700.07,1299.11,703.4Z" transform="translate(-338.18 -239)"/>
    <path class="cls-4" d="M1474,630c11.24,9.75,23,19,33.57,29.39,11.32,11.15,21.13,23.72,28.23,38.14.64,1.29,1.74,2.48,1.32,4.46H1477a6.66,6.66,0,0,1-2.9-3.91c-6.84-20.63-9.32-41.5-3.33-62.81C1471.29,633.26,1471.63,631,1474,630Z" transform="translate(-338.18 -239)"/>
    <path class="cls-4" d="M1117.49,703.67l-1.59,1.08c-7-1.52-14.18-.24-21.26-.7-1.91-.12-4,.72-5.66-1-3.38-2.16-7.11-.64-10.66-.95-3.11-.27-6.27-.06-10.89-.06,4.69-4.63,8.3-8.66,12.38-12.13,12.51-10.63,24.52-21.85,37.6-31.81,5.14-3.92,10.22-7.92,15.29-11.93a15.25,15.25,0,0,1,10.16-3.22c13.5.2,27,.06,40.5.1,1.6,0,3.28-.45,5.11.55-3.23,8.26-8.63,15.28-12.71,23-.75,1.43-3.07-.72-2.94,1.69-1.94-.45-1.87-2.14-2.14-3.56a54.18,54.18,0,0,0-1.85-6.74c-.8-2.47-2-4.78-4.84-5.16s-4.48,1.9-6,3.88c-2.31,3.06-1.93,6.64-1.36,10.11a52,52,0,0,0,5.13,14.56c.83,1.65,2.6,3.28.65,5.32-3.48,1.18-7,.89-10.52.3-2.74-1-3.22-3.59-4.19-5.82-1.59-3.63-2.68-7.5-5.08-10.75-.77-1-1.62-2.37-3.17-1.86s-1.72,1.94-1.91,3.25c-.48,3.32.93,6.13,2.43,8.94,1,1.82,2.64,3.62.78,5.86-2.15,1.5-4.66,1.53-7.13,1.83a101.64,101.64,0,0,0-40.13,13.31c6.37-.21,12.31-.15,18.25-.07C1113.84,701.7,1116.2,701.26,1117.49,703.67Z" transform="translate(-338.18 -239)"/>
    <path class="cls-6" d="M1117.49,703.67c-8.75-1.18-17.56,0-26.34-.62,5.09-7.18,22.51-13,50.48-17,3-2.15,6.06-1.7,9.14-.16a67.62,67.62,0,0,0,12.24.21c3.28-2.31,6.76-1.69,10.27-.76,1.43.5,2.73-.17,4.07-.45,2.64-1.67,5.43-2.67,8.6-1.8,13.11-2.63,25.69-7.13,38.47-10.9,5.69-1.07,11.34-2.47,17.07-3.16,26-3.13,49.16,3.8,69.88,19.51a8.64,8.64,0,0,0,1.31.7c5.84,2.36,8.5,7.27,10.31,12.86-.66,2.05-2.42,1.31-3.74,1.32-6.71.08-13.43,0-20.14,0a103.21,103.21,0,0,0-45.43-20.63c-12-2.32-23.85-.67-35.68,1.77-15.31,3.16-30.29,7.81-45.83,9.93-7.47,1-15,.56-22.44,1.19C1138.51,696.6,1127.65,698.61,1117.49,703.67Z" transform="translate(-338.18 -239)"/>
    <path class="cls-7" d="M725,577.93c4.1-.42,5,1.42,4.94,5.42-.26,17.7-.09,35.41-.15,53.12,0,1.52.85,3.28-.71,4.6-1.15-1.49-.54-3.21-.54-4.81,0-17.43-.11-34.86,0-52.29,0-3.4-.82-4.65-4.41-4.56-9.94.22-19.89.08-29.79.07.82.2,1.89-.2,2.67.5-7.59,8.65-16,16.49-24.24,24.49-2.33,2.26-6.23,2.56-8.15,5.89-.67,1.17-2-.22-2.59-1.28-3.2-6.15-8.7-10.55-12.54-16.32-2.25-3.38-5.6-7.63-10.41-9.25-2.87-1-3.59-2.43-1.83-5.66a52.39,52.39,0,0,1,9.45-12.11c12-12,24-24,36-35.94,1.12-1.11,1.95-2.7,4.25-3.11V577h1V383.23c1.57,1.53.68,3.45.68,5.15q.09,92.21-.05,184.41c0,4.32.9,5.67,5.4,5.47C704.35,577.82,714.68,578,725,577.93Z" transform="translate(-338.18 -239)"/>
    <path class="cls-2" d="M1474,630c-5.55,14-6,28.53-4.17,43.31A123,123,0,0,0,1477,702c-9.66,0-19.37-.63-29,.11-23.29,1.79-46.59.33-69.87.86-2,0-4,.39-5.79-1l-.46-.48a.91.91,0,0,1,1-.59c1.79,1.12,3.78,1.06,5.79,1.06,19.79,0,39.58-.09,59.37.05,3.89,0,4.75-.56,4.19-4.92-2.36-18.35,1.11-36.13,6.52-53.62a286.46,286.46,0,0,1,16.29-40c2.08-4.29,4.62-8.36,7-12.54-.67,6.83-3.45,13.26-3.13,20.34.26,5.74,1.05,11.06,4.2,15.93A11.3,11.3,0,0,1,1474,630Z" transform="translate(-338.18 -239)"/>
    <path class="cls-8" d="M1350.36,773.56H897.49c.62-2.32,2.45-1.46,3.67-1.47,9.17-.09,18.34-.22,27.49,0a28.75,28.75,0,0,0,13-2.5A51.66,51.66,0,0,1,964.9,765c12.47.35,24.2-3.48,36.06-6.48,17.88-4.51,34.81-2.28,49.69,8.62,5.47,4,10.59,5,16.86,5q138.46-.17,276.93,0C1346.43,772.07,1348.6,771.5,1350.36,773.56Z" transform="translate(-338.18 -239)"/>
    <path class="cls-4" d="M1323,702.06a80.19,80.19,0,0,0-10.31-12.86c.06-14.22.09-28.44.21-42.65,0-1.73-.7-3.68.91-5.15,7.66.27,15.33.06,23,.11,6.1,0,6.69.38,7.51,6.61q2.92,22.32,6.79,44.47c1.38,7.84,1.25,7.87,9.48,7.92.88.08,1.77.08,2.65.09,2.93.18,6-.81,8.66,1.32l.43.12c-6.47,2.23-13.25,1.41-19.68.75-7.32-.75-14.58-.43-21.86-.72C1328.18,702,1325.59,702.06,1323,702.06Z" transform="translate(-338.18 -239)"/>
    <path class="cls-9" d="M526.82,469.13c12.41,9.75,17.58,23.08,18.23,38.29.83,19.48-4.28,37.85-11.73,55.63a165,165,0,0,1-29.93,47.37c-1.1,1.22-2.39,2.26-3.58,3.38-3.44-2-1.79-5.3-1.48-7.87a59.75,59.75,0,0,1,11-28c11.25-15.61,17.52-33.19,20.4-51.89,2.39-15.49,2.24-31.08-2.65-46.32-1.25-3.91-4.65-7-4.13-11.54Z" transform="translate(-338.18 -239)"/>
    <path class="cls-10" d="M797.1,480.07c-13.05,13.61-26.32,27-40,39.91.29-17.58,4.26-34.44,10.21-50.87C770.58,460,774.42,451,780.13,443c2.75-1.94,5-.8,7.13,1.14,6.35,5.85,11.42,12.88,17.35,19.12,2,2.11,1.83,4.26.58,6.82C803.25,474.08,799.21,476.28,797.1,480.07Z" transform="translate(-338.18 -239)"/>
    <path class="cls-11" d="M983.92,452.88c9.79-10.28,19.8-20.36,30.11-30.13a120,120,0,0,1,24.75,40.34q-20.65,20.48-41.32,40.94c-1.41,1.39-2.9,2.7-4.36,4-2.15-.16-1.18-1.45-.68-2.26a31.51,31.51,0,0,1,5.05-5.47c5.22-5.08,10.15-10.47,15.38-15.54,1.95-1.89,3.11-3.88-.07-5.47-4.95-2.46-7.41-7.16-9.91-11.47-2.88-5-7.52-7.84-11.24-11.77-1.23-1.3-3-1.21-4.66-1.22C985.65,454.86,983.76,455.32,983.92,452.88Z" transform="translate(-338.18 -239)"/>
    <path class="cls-12" d="M446,656.11c-4.85-3.09-8.45-7.65-13-11.12-7.53-7.68-15.78-14.73-22.08-23.51-10.22-14.24-15.46-30.68-19.9-47.39-4.17-15.68-6.47-31.56-4.07-47.8,1.15-7.81,4.21-14.61,11.1-19.14,1.87,4.55.23,9.25-.37,13.58-1.54,11.25,0,22.26,1.61,33.16a163.92,163.92,0,0,0,16.27,50.93c5.52,10.82,13.84,19.48,21.22,28.86a78.62,78.62,0,0,1,9.91,17.23C447.37,652.46,448.72,654.73,446,656.11Z" transform="translate(-338.18 -239)"/>
    <path class="cls-13" d="M797.1,480.07c-1.35-2.08,1.06-2.32,1.74-3.32,1.38-2,3-3.77,4.49-5.72,3.18-4.3,1.1-6.51-1.83-9.37-4.66-4.55-8.19-10.12-13-14.63-2.48-2.35-4.61-4.75-8.41-4a107.51,107.51,0,0,1,25.68-30.44c4.73.84,7.22,4.47,9.91,7.87,4.66,5.88,10.27,10.87,15.34,16.37,2.62,2.83,3.88,5.11.19,8.27-1.92,1.65-4.09,3.45-5.15,6C816.76,461.07,807,470.67,797.1,480.07Z" transform="translate(-338.18 -239)"/>
    <path class="cls-14" d="M826.1,451.07c0-3.69,3.42-5.2,5.33-7.47s1.29-3.22-.19-4.89c-4.92-5.56-10.76-10.25-15.26-16.21a43.82,43.82,0,0,0-10.17-9.94,108.23,108.23,0,0,1,32.1-20.6c4.87-1.09,8.37.79,11.66,4.44,3.53,3.92,7,7.92,10.35,12,3,3.53,2.92,5-.26,8.47-2.23,2.42-5,4.36-6.62,7.32C844.39,433.45,835.37,442.38,826.1,451.07Z" transform="translate(-338.18 -239)"/>
    <path class="cls-15" d="M667.63,818.34H761c-24.72-14.15-28.62-33.93-24.51-49.24,5.11-19,20.22-30.38,38.86-30.8,17.25-.4,33.6,9.26,40,28.77,3.25,9.9,2.5,19.83-2,29.56-4.4,9.47-11.72,15.76-21.52,21.19h270.94c-3.88-5.35-9.23-8.82-12.36-14.16,3.82.92,5.64,4.23,8.26,6.54s4.78,6.2,7.67,6.78,4.15-4.4,7.07-6.16c3.25-2,5.11-5.84,9.13-7.1-4.69,3.87-7.38,9.58-12.33,13.1-2.42,1.71-2.1,2.88-.28,4.63,3.48,3.35,6.91,6.76,10.24,10.26.9.94,2.74,1.53,1.93,3.9-3.61-1.71-5.75-4.88-8.34-7.43-7.74-7.58-7.68-7.63-15.45.11a81.64,81.64,0,0,1-7.8,7c3-5.7,8.79-9,12.89-15.14H667.68Z" transform="translate(-338.18 -239)"/>
    <path class="cls-5" d="M573,642q-12.86-.12-25.7-.24c-1,0-2-.07-2.39,1.19.86,3.64-.83,6.89-1.94,10.06-2.82,8-4.9,16.48-10.89,23a171.34,171.34,0,0,1-18,25c-6.85,6.28-13.49,12.85-22,17-2.32-5.22.62-9.61,2.59-13.92,4-8.69,10.75-15.52,16.28-23.18,10.37-14.36,19.4-29.43,24.7-46.44,2.42-7.73,4.3-15.63,4.32-23.82,0-1.34,0-2.68.87-3.81,4.44-2.23,5.24,1.42,6,4.1,2.17,7.56.79,15.17-.3,22.74-.31,2.13-.79,4.24-1.19,6.36,4.08,1.05,8.22.38,12.32.43,13.91.18,27.82-.15,41.73.17a.91.91,0,0,1,.32,1.5A196.18,196.18,0,0,0,573,642Z" transform="translate(-338.18 -239)"/>
    <path class="cls-3" d="M495.13,523.9l.39-2.48,20.32-33.52c1.45,9.2,2.18,18.49,3.3,27.73,2,16.85-3.64,31.08-14,43.85-4.07,5-7.54,10.59-13.05,14.27-.29-.4-.7-.78-.64-1.3,1-9,1.22-18.19,2.78-27C495.5,538.12,495.38,531.08,495.13,523.9Z" transform="translate(-338.18 -239)"/>
    <path class="cls-16" d="M853,424.15c.29-3.42,3.34-4.77,5.28-6.91,3.62-4,3.66-4.5.08-8.42-3-3.26-5.78-6.74-8.54-10.11a17.75,17.75,0,0,0-12-6.75c19.18-8.83,39.26-13.52,60.44-13Q876.14,402,853,424.15Z" transform="translate(-338.18 -239)"/>
    <path class="cls-17" d="M482,790.68c-2.06-.67-4.24-1.06-6-2.54-.11-9.47-3.31-18.45-4.4-27.76-.77-6.54-1.8-13-2.58-19.57s1.64-11.66,7.56-14.88c3-1.64,5.78-3.91,9.48-3.92q.06,25,.13,50a2.48,2.48,0,0,1,.76,2.29C485.17,779.73,485.86,785.91,482,790.68Z" transform="translate(-338.18 -239)"/>
    <path class="cls-4" d="M421,702c8.62-13,20.07-23.26,31.84-33.22a7.72,7.72,0,0,1,4-1.82l.41,0c2.12,3.74,1.51,7.85,1.11,11.73-.64,6.15-.81,12.28-.85,18.44,0,2.12.21,4.4-1.78,6-1.53-1.32-3.39-1-5.18-1Q435.8,702,421,702Z" transform="translate(-338.18 -239)"/>
    <path class="cls-18" d="M468,785.82a4.93,4.93,0,0,1-3-.89c-.17-5.44-3.13-10.07-4.41-15.22-2.86-11.54-4.35-23-1.77-34.78a27.35,27.35,0,0,1,7.09-13.4c5.84-6.1,10.59-12.65,11.59-21.44.75-6.61-.59-12.84-2.43-19-2.8-9.37-7-18.3-9.16-27.85-2.94-13.11-5-26.35-5-39.84.08-14.12-.68-28.26,1-42.34,1.43-11.66,2.84-23.37,6.37-34.61a154.49,154.49,0,0,0,6.54-56c.81-.37,1.36.21,2,.52,1.88,21.35-2.21,41.91-8.06,62.29-3.11,10.84-4,22.08-5.07,33.31s-.72,22.24-.77,33.36a180.32,180.32,0,0,0,12.74,67c4.3,11,6.76,22.56.5,34.14a64.91,64.91,0,0,1-8.82,11.94c-7.06,8.05-8.79,17.54-8,27.8C460.33,762.9,464.36,774.31,468,785.82Z" transform="translate(-338.18 -239)"/>
    <path class="cls-19" d="M817,684.84c8.39,6,17.8,10,27.21,14.07-3.15,2.12,3.78.52-.52,3.12H789l0-.06c-.45-2.37,1.61-3,2.91-4.07a178.63,178.63,0,0,1,17-11.82,18.53,18.53,0,0,0,4.17-3.4C815.13,682,816.2,683.17,817,684.84Z" transform="translate(-338.18 -239)"/>
    <path class="cls-20" d="M455.77,703.06q.76-18.07,1.52-36.14a44.57,44.57,0,0,1,11,9.06c3.8,4.26,3,8.68.74,13.35-4,8.2-7.75,16.48-11.64,24.72a14.33,14.33,0,0,1-1.61,1.93v-9.09Z" transform="translate(-338.18 -239)"/>
    <path class="cls-21" d="M457.39,585.92c1.15,6-.24,11.93-.15,17.9.14,8.77,0,17.56,0,27.24a72,72,0,0,1-12.55-13C442.63,604.86,451.82,596.1,457.39,585.92Z" transform="translate(-338.18 -239)"/>
    <path class="cls-22" d="M446,656.11c1.46-2.41,0-4.4-.88-6.51-4.54-10.73-12.38-19.08-19.59-28C415.25,609,408.69,594.34,404,578.76a179.51,179.51,0,0,1-7.85-51.86c0-6.58,1.23-13.17,1.9-19.75a2.54,2.54,0,0,1,1.89-1.31c1.05,1.09.17,2.25,0,3.3-4.06,26.67-.06,52.42,8.86,77.6a121.34,121.34,0,0,0,24.78,41.47c7.63,8.42,13.76,17.88,15.73,29.43a4.78,4.78,0,0,1-.2,1.37A6.79,6.79,0,0,1,446,656.11Z" transform="translate(-338.18 -239)"/>
    <path class="cls-23" d="M523,468.19c8,14.47,10.13,30.22,8.87,46.31-1.65,21.19-6.62,41.45-19,59.41-6.66,9.7-12.4,20-13.45,32.18-.23,2.62-1,5.2.38,7.71A2.72,2.72,0,0,1,498,616c-1.7-4.19-1.33-8.54-.49-12.76a70.06,70.06,0,0,1,11.57-26.76c11.55-16.4,17.61-34.73,20-54.48,1.71-14,1.46-27.77-2.93-41.34a47.68,47.68,0,0,0-6.09-12.45A3.46,3.46,0,0,1,523,468.19Z" transform="translate(-338.18 -239)"/>
    <path class="cls-24" d="M489.1,794,486,792.14c-.92-1.57,0-2.89.64-4.18l17.71-35.46a7.94,7.94,0,0,1,2.82-3.38c3.09,1,2.52,3.39,2,5.72-1.76,8.38-5.9,15.77-9.74,23.27-2.18,4.27-4.66,8.39-7.09,12.53C491.6,792,491.18,793.83,489.1,794Z" transform="translate(-338.18 -239)"/>
    <path class="cls-25" d="M482,790.68,486.21,772c3-3.25,3.28-7.81,5.75-11.35,3.45-4.93,6.76-9.88,13.13-11.39,1,1.42-.08,2.55-.63,3.67q-8.64,17.41-17.39,34.79a7.8,7.8,0,0,1-3.09,3.8Z" transform="translate(-338.18 -239)"/>
    <path class="cls-26" d="M540.88,606.85c.61,13.93-3.25,26.91-8.6,39.52-7.58,17.89-19,33.38-30.76,48.64-5.22,6.75-9.46,14-9.4,23a2.32,2.32,0,0,1-2,1c-.38-10.07,4.35-18.18,10.17-25.74,10.42-13.54,20.59-27.2,28-42.74A120.29,120.29,0,0,0,538.83,615c.31-2.28,1.13-4.95-.85-7.1C538.73,607,539.83,607,540.88,606.85Z" transform="translate(-338.18 -239)"/>
    <path class="cls-27" d="M452.82,782.94c-2.44-.09-5.19.89-6.79-2-3.43-8.7-6.43-17.51-5.95-27,.21-4.09.07-8.34,2.76-11.88a4.16,4.16,0,0,1,2.27,3.08c2.93,11.52,5.52,23.12,8.34,34.66C453.73,780.89,453.9,782.05,452.82,782.94Z" transform="translate(-338.18 -239)"/>
    <path class="cls-28" d="M460,783.89a11.3,11.3,0,0,1-4.95-.81c-2.8-3.19-2.66-7.38-3.63-11.15q-3.57-13.86-6.65-27.84c-.3-1.35-.64-2.55.07-3.81,5.5,2.15,6.63,7.31,8.34,12.08C457.46,762.43,459.33,773,460,783.89Z" transform="translate(-338.18 -239)"/>
    <path class="cls-29" d="M452.1,424.93c2.79-4.11,6.75-7.17,10.16-10.71,4.62-4.81,4.62-4.72,0-9.47-3.42-3.54-7.35-6.63-9.69-11.27,5.87,4,10.41,9.46,15.74,14.19l15.4-14.73,1,1c-4,5.79-9.95,10-14.64,15.67l14.79,14.9-1.44,1.44-16.13-16L453.08,426Z" transform="translate(-338.18 -239)"/>
    <path class="cls-30" d="M498.15,796c-1.68-.24-3.44-.28-4.47-2,4.71-6.25,9.86-12.12,16.4-16.5,3.8-2.55,7.88-4.94,12.87-3.68-1.83,5.23-6.7,7.61-10.54,10.82C507.75,788.5,504,793.61,498.15,796Z" transform="translate(-338.18 -239)"/>
    <path class="cls-31" d="M504.12,797.93l-3.83-1.37c.16-3.19,3.2-4,5-5.67,5.57-5.17,11.37-10.09,17.06-15.15a3.32,3.32,0,0,1,2.69-1c2.65,2.83.67,5.33-.85,7.55C519.2,789.59,512.27,794.57,504.12,797.93Z" transform="translate(-338.18 -239)"/>
    <path class="cls-32" d="M1507.42,409.45c-1.37,4.11-4.87,6.4-7.62,9.26-6.18,6.4-6.25,6.32,0,12.6a90,90,0,0,1,8.6,9.67c-3.75-.74-5.42-3.94-7.95-6.06-2.89-2.43-5-7.23-8.4-7.23s-5.59,4.7-8.35,7.28c-2.3,2.13-4.35,4.53-6.51,6.82l-1.17-1c2.45-2.8,4.88-5.63,7.38-8.39.54-.6,1.41-.89,2-1.45,5.37-5,5.38-5.7.29-10.8a95.61,95.61,0,0,1-9.4-10.4c4.19,1.05,6.12,4.69,9.08,7.1,2.54,2.06,4.22,6.33,7.31,6.16,2.73-.14,4.19-4.44,6.54-6.38C1502,414.35,1504.24,411.37,1507.42,409.45Z" transform="translate(-338.18 -239)"/>
    <path class="cls-32" d="M1427.85,788.62c3.82-3.84,7.51-7.83,11.52-11.47,2.85-2.59,3.25-4.55.12-7.24-3.28-2.82-6.19-6-9.22-9.15-.86-.87-2.15-1.57-1.85-3.65,4,1.77,6.18,5.17,8.91,7.83,7.17,7,7.06,7,14.26-.07,2.55-2.5,5.37-4.72,8.22-7.2-1.71,4-5.28,6.18-8,9-6.17,6.42-6.25,6.34,0,12.6a79.29,79.29,0,0,1,8.61,9.68c-4.06-1.22-6.3-4.51-9-7.16-7.36-7.21-7.33-7.29-14.71.14-2.57,2.58-5,5.32-7.47,8Z" transform="translate(-338.18 -239)"/>
    <path class="cls-33" d="M697.05,580h-6.88v-.89c12,0,24,.06,36,0,3.29,0,2.71,2.16,2.72,4.07q0,26,0,52c0,2,.11,4,.17,6a2.11,2.11,0,0,0-.49.76l-.17,0c-10.61-.87-21.24-.14-31.86-.39a62.06,62.06,0,0,1-7.47-.17c1.15-2.22,3.23-1.26,4.89-1.27,9.8-.1,19.61-.15,29.41,0,3.27.05,4.72-.65,4.68-4.35q-.27-25.66,0-51.33c0-3.6-1.24-4.51-4.61-4.44C714.66,580.12,705.86,580,697.05,580Z" transform="translate(-338.18 -239)"/>
    <path class="cls-34" d="M444.8,740.28q5.1,21.4,10.21,42.8l-2.19-.14q-5-20.48-10-40.93A2.13,2.13,0,0,1,444.8,740.28Z" transform="translate(-338.18 -239)"/>
    <path class="cls-35" d="M484,791.54q10.54-21.13,21.11-42.26l2.09-.16-21.17,43Z" transform="translate(-338.18 -239)"/>
    <path class="cls-36" d="M525.05,774.72l-24.76,21.84-2.14-.61L523,773.79A2,2,0,0,1,525.05,774.72Z" transform="translate(-338.18 -239)"/>
    <path class="cls-2" d="M601,702l0,1c-1.8-1.39-1-3.38-1-5.1-.11-18.58-.14-37.16-.19-55.74a4.75,4.75,0,0,0-.48-.85,2.17,2.17,0,0,1,1.82.59c.86,12.26.31,24.54.31,36.81C601.43,686.47,602.15,694.27,601,702Z" transform="translate(-338.18 -239)"/>
    <path class="cls-2" d="M689.1,641.31c11.48,0,23,0,34.44.09,1.63,0,3.33-.44,4.89.47l-39.17.15A4.29,4.29,0,0,0,689.1,641.31Z" transform="translate(-338.18 -239)"/>
    <path class="cls-5" d="M1361.16,702c-10,.52-9.86.49-11.54-9.13-2.62-15.06-5.2-30.13-6.75-45.34-.44-4.34-1.71-6.3-6.64-6-7.44.46-15,0-22.43-.1,11.91.09,23.81.07,35.72.34,3.34.07,4.71-.69,4.52-4.33-.26-5.11.08-10.25.17-15.37a46.12,46.12,0,0,1,3.21-10.45c5.77-12.5,10.73-25.33,15.89-38.08,1-2.6,1.65-5.42,3.77-7.48a247.36,247.36,0,0,0,14-46,39.67,39.67,0,0,1,1.72-7.23c.87-2.11,1.84-4.77,5.19-3.87,2.92,5.94,2.73,12.3,2.13,18.59-2.2,23-9.57,44.72-17.89,66.13-4.75,12.22-10.59,24.06-13.26,37-1.19,5.75-.15,11.61-1.12,17.36q-2.43,5-4.88,9.91c-.33,2.2-1.68,3.88-2.8,5.72a24.54,24.54,0,0,0-3,19.82c5.13-2.75,5.76-8,8.84-11.28,4.47-8.3,8.79-16.7,13.47-24.89,5-8.81,10.33-17.5,18-24.37,2.13-1.9,4.25-3.87,7.5-2.83,1.31,2.74-.07,5.18-1,7.61-5.23,13.89-12.58,26.68-20.8,39-7.18,10.75-14.63,21.33-20.09,33.12A5.46,5.46,0,0,1,1361.16,702Z" transform="translate(-338.18 -239)"/>
    <path class="cls-2" d="M1156.89,576c7.69-14.24,15.54-28.39,23.95-42.23a30.32,30.32,0,0,1,8.15-4.65c10.43-4.41,20.33-9.88,30.25-15.32,5-2.75,6.76-1.83,6.73,3.7-.12,17.62.7,35.24.43,52.87-.12,7.36-.37,7.67-7.5,7.67q-27.95,0-55.88,0C1160.83,578,1158.2,578.81,1156.89,576Z" transform="translate(-338.18 -239)"/>
    <path class="cls-37" d="M1312.62,454.92q.23,20.54.44,41.05c2.27,8.08,3,16.12-.41,24.1l-21.59,21c-2.79-1.41-.26-2.49.33-3.49,1.32-2.23,5.14-3.37,4.52-6s-4.09-3.7-6-5.71c-7.87-8.11-17.57-14.38-24-23.93Z" transform="translate(-338.18 -239)"/>
    <path class="cls-38" d="M1265.88,501.89c3.23.35,3.12,4,5.1,5.34,10,7,17.1,17.4,28.48,24.45-2.76,2.52-5.11,4.55-7.3,6.74-.63.63-2.43,1.08-1.1,2.64-7.31,8-15,15.64-23,23-2.4-.92-.63-2.27-.17-3.23,1.12-2.37.37-4-1.36-5.72-4.54-4.59-9.93-8.23-14.29-13-1.67-1.82-3.62-3.38-5.21-5.32-2.6-3.18-5.4-6-10.1-3.68-.64.32-1.2-.26-1-1.13C1245.59,521.59,1255.63,511.64,1265.88,501.89Z" transform="translate(-338.18 -239)"/>
    <path class="cls-39" d="M1244,588c-8.4,9.45-17.65,18.06-26.64,26.93-3.15,3.12-5.83,2.75-8.44-.65-3.33-4.33-7.86-7.42-11.73-11.16s-6.89-8-11.38-10.89c-2.65-1.72-3.84-4.59-2.47-7.38s3.74-4.93,7.41-4.9c9.15.08,18.3,0,27.44,0,1.26,0,2.61.45,4.39-.92h-15c-16.13,0-32.26,0-48.39-.15-1.09,0-4.1,1.94-3.4-1.87,4.44.82,8.93.47,13.4.48q25.41.06,50.8,0c1.64,0,3.33.33,4.92-.35,1.59-1.46,1-3.4,1-5.15.06-8.93,0-17.85,0-26.78,0-1.77-.47-3.68.94-5.21h1c1.65,1.56,1.36,3.64,1.39,5.58.08,4,.47,8-.06,11.9-1.31,9.66,3.29,16.13,10.63,21.32C1243.18,581.1,1245.14,583.86,1244,588Z" transform="translate(-338.18 -239)"/>
    <path class="cls-1" d="M1226,577.87c-20.9.08-41.81.2-62.72.17-2.46,0-5.23,1.18-7.44-1l1.07-1.07c1.79,1.1,3.78,1.07,5.78,1.07,19.12,0,38.24-.12,57.35.07,3.91,0,5.12-1,5.07-5-.2-18.12-.07-36.24-.11-54.35,0-1.43.68-3.24-.76-4.19-1.86-1.24-3,.84-4.32,1.57-11,6.06-21.89,12.34-33.75,16.54-1.79.64-2.73,3.7-5.31,2.09,6.09-12.47,13.51-24.21,20.21-36.35,7.83-14.22,16-28.24,24-42.35,1.92.1,1.37,1.6,1.37,2.6q0,59.43,0,118.86A3.34,3.34,0,0,1,1226,577.87Z" transform="translate(-338.18 -239)"/>
    <path class="cls-40" d="M1244,588a14.94,14.94,0,0,0-6.44-9.31c-6.46-4.65-10.89-10.73-9.72-19.78.8-6.22.14-12.62.13-18.94a40.8,40.8,0,0,1,8-8c6.23-3.06,9.18,1.08,13,5.08s7.14,8.12,11.9,11.08c3.12,1.93,5.23,5.36,8.24,7.72,1.65,1.3,1.26,3.59.07,5.49-.51.82-2.39,1.18-1.09,2.73Q1256.56,576.59,1244,588Z" transform="translate(-338.18 -239)"/>
    <path class="cls-41" d="M1312.65,520.07q.21-12,.41-24.1c11.57-6.36,23.32-12.33,36.11-15.93a26.29,26.29,0,0,1,7.31-1.08c8.14.06,10.51,2,9.36,10-.95,6.56-2.36,13.35-7.92,18.09-2.84-.62-2.38-3.26-2.93-5.13-1.09-3.69-2.25-7.3-4.58-10.43-1.23-1.65-2.69-2.94-4.87-3.09h-1.34c-3.52.34-6,2.71-8.81,4.46a21.58,21.58,0,0,0-3.35,2.67c-7.71,8.11-7.29,18-6.2,28.06.6,5.57,2.54,11,2.13,16.69a22.13,22.13,0,0,1-14.9,11.76Z" transform="translate(-338.18 -239)"/>
    <path class="cls-17" d="M1332.06,494.16a5.09,5.09,0,0,1,2.88-2.18c2.14,2.19,1.42,5,1.51,7.57a278.14,278.14,0,0,0,5.21,45.49c1,5.17,3.1,10.06,4.44,15.16.26.61.82-.37.25,0-.23.14-.25,0-.39-.32a3.34,3.34,0,0,1,.09-2.9c2.69-5.3,1.55-10.57.4-16a199.41,199.41,0,0,1-3.9-48.57c.07-1.82,0-3.69,1.38-5.16l1.19-.06c1.43.69,1.5,1.95,1.57,3.34.62,12.71.8,25.45,2.71,38.08.74,4.85,1.64,9.68,2.36,14.94,1.7-3.62,2.79-7.1,4.62-10.21.86-1.48,1.31-3.56,3.71-3.42,1.49,13.45.79,26.94.72,40.41,0,2.16,0,4.33.08,6.49a10.41,10.41,0,0,0-.32,5.91c2,9.91.24,19.48-2.33,29a32.33,32.33,0,0,1-4,10.34q-.12-18.85-.23-37.7c0-6.24,0-6.24-6-6.27-1.32,0-2.64-.06-4-.09-1.91-2.31-1.54-5-1.14-7.64a15.3,15.3,0,0,0-1.18-8.76c-6-13.61-7.38-28.23-9-42.76a188.5,188.5,0,0,1-1.32-19.88C1331.3,497.28,1330.86,495.61,1332.06,494.16Z" transform="translate(-338.18 -239)"/>
    <path class="cls-12" d="M1332.06,494.16c1.52,10.66,1.15,21.49,2.9,32.14s2.08,21.59,6.94,31.36c3.36,6.74,2.1,13.49,2.09,20.32h-9.38c-2.64-2.36-2.28-5.76-2.84-8.75-1.41-7.64-2.63-15.32-4.45-22.88a10,10,0,0,1-.2-5.36c-.92-5.87-2-11.71-2.73-17.6C1323.16,512.69,1322.53,502.07,1332.06,494.16Z" transform="translate(-338.18 -239)"/>
    <path class="cls-2" d="M1327.12,541c3.64,10.74,4.76,22,6.82,33.06.24,1.31.45,2.62.67,3.93-6.31.07-12.62.09-18.92.25-2.12.06-2.92-.58-2.87-2.81.18-7.8.18-15.6.25-23.4C1318.16,548.85,1323.1,545.5,1327.12,541Z" transform="translate(-338.18 -239)"/>
    <path class="cls-42" d="M1223.94,641.29q-75.9,0-151.8.12c-2,0-3.4.05-3.36-2.77.17-10,.08-20,0-30a5.14,5.14,0,0,1,1.34-3.63c-.06,9.55-.14,19.09-.17,28.64,0,6.29,0,6.3,6.11,6.3q71.2,0,142.4,0C1220.32,640.05,1222.56,639,1223.94,641.29Z" transform="translate(-338.18 -239)"/>
    <path class="cls-2" d="M1226,577.87q0-58.56,0-117.12c0-1.92.73-4-.84-5.73a1.71,1.71,0,0,1,1.3-1.79c1.11.73.46,1.8.47,2.7q.08,42,.11,84.08c0,11.11-.07,22.22-.22,33.33C1226.73,574.84,1227.68,576.62,1226,577.87Z" transform="translate(-338.18 -239)"/>
    <path class="cls-1" d="M602,577.75a2,2,0,0,1-2,.21c-1-7.27-.18-14.57-.38-21.85-.17-6.29-.73-6.78-6.55-4.43-14.82,6-29.29,12.63-42.71,21.41a8.4,8.4,0,0,0-2.6,2.11c2.72.72,5.17.38,7.56.39,12,0,23.93-.06,35.9.09,2,0,4.85-1,5.75,2.27H531.39q9.71-17.19,19.39-34.33,23-40.68,46-81.34c1.39-2.45,2.88-4.84,4.33-7.25,1.91.1,1.35,1.6,1.35,2.6q0,59.37,0,118.73A3.35,3.35,0,0,1,602,577.75Z" transform="translate(-338.18 -239)"/>
    <path class="cls-43" d="M597,578c-1.49-1.59-3.44-.91-5.19-.92-14.12,0-28.24,0-42.36,0-1.6,0-3.3.49-4.72-.49a1.23,1.23,0,0,1,.35-1.83A256.52,256.52,0,0,1,596,549.15c4.76-1.76,5-1.51,5,3.58,0,6.64,0,13.29,0,19.93,0,1.84,0,3.66-1,5.3Z" transform="translate(-338.18 -239)"/>
    <path class="cls-4" d="M520.94,641.54c-5.09,18.71-15.11,33.86-32.22,44.73V667.06c-1.65-8.66-2.66-17.3,1.32-25.67Z" transform="translate(-338.18 -239)"/>
    <path class="cls-17" d="M490,641.39c-1.38,8.51-.54,17.13-1.32,25.67-10.78-3-16.36-13.35-12.4-23.43,3-7.57,7.07-14.5,13.64-19.65Q490,632.68,490,641.39Z" transform="translate(-338.18 -239)"/>
    <path class="cls-43" d="M602,577.75q0-58.49-.07-117c0-1.92.71-4-.79-5.76.16-.44.2-1.08.52-1.29.79-.51,1.19,0,1.18.79,0,1.83-.13,3.66-.13,5.49q-.06,57-.12,114C602.56,575.25,603.24,576.68,602,577.75Z" transform="translate(-338.18 -239)"/>
    <ellipse class="cls-44" cx="233.31" cy="340.54" rx="43.13" ry="0.31"/>
    <path class="cls-45" d="M601,702c-.75-13.77-.17-27.54-.3-41.32-.06-6.14.14-12.28.22-18.42-.26-.28-.34-.54-.22-.78s.22-.36.32-.36c1.37.93,1,2.35,1,3.63q0,26.81,0,53.63C602,699.67,602.31,701.09,601,702Z" transform="translate(-338.18 -239)"/>
    <path class="cls-46" d="M688,702c-.31-.55-.89-1.11-.9-1.67,0-19.07,0-38.14.9-57.22V702Z" transform="translate(-338.18 -239)"/>
    <path class="cls-47" d="M601,641.13c0,.38-.06.76-.1,1.14l-1.6-1c-16.53,0-33.06-.06-49.58-.19-1.42,0-3.36,1.17-4.31-1.06q25.53,0,51.05,0C598,640,599.82,639.41,601,641.13Z" transform="translate(-338.18 -239)"/>
    <path class="cls-1" d="M850.15,583.85c-2.83-19.18-2.66-38.5-2.11-57.79.5-17.51,2.69-34.78,10.4-50.89,7.2-15.06,18.86-24.32,35.42-26.66,14.35-2,28.22-.66,40.48,8.21,6.49,4.69,11.11,10.87,14.66,17.93,1.4,2.79,2.64,5.66,4,8.49a9.36,9.36,0,0,1,2.79,5.17c2.91,12,5.16,24,4.71,36.39,0,12.22-1.14,24.4-1.34,36.61a.51.51,0,0,1,0,.73c-1.6.22-1.84-1-2.24-2.07-.58-6.45-.12-12.92-.28-19.38-.15-5.66-1-6.38-6.48-5.82-8.74.91-17.45,1.91-25.49,5.84-3.5,3.79-5.65,8.52-9.06,12.47-15.49,17.94-35,28.21-58.19,32.09a56.15,56.15,0,0,1-5.86,1.15C850.16,586,850.73,584.6,850.15,583.85Z" transform="translate(-338.18 -239)"/>
    <path class="cls-4" d="M851.12,586c2.87-3,6.91-2,10.36-2.72a95.61,95.61,0,0,0,48.81-26.15A68.46,68.46,0,0,0,923,540a5.59,5.59,0,0,1,5.27,0c9.2,3.92,18.06,8.47,25.82,14.9A16.21,16.21,0,0,1,958,560c.07.84.22,1.63,1.12,2-.22,17.46-2.63,34.55-10.62,50.26-7.91,15.55-21.3,23.25-38.47,24.56-12.75,1-24.83-1.25-35.87-8-3.23-.71-5.58-2.76-7.7-5.13-8.74-9.75-13.75-21.26-16-34.05C850.14,588.34,850,587,851.12,586Z" transform="translate(-338.18 -239)"/>
    <path class="cls-48" d="M851.12,586c2.59,17,8.79,32.1,23,42.88a4.24,4.24,0,0,0-2.65,1.24L817,684.84l-4-2.36c-4.81-.77-7.25-5-10.75-7.58-6.43-4.82-11.25-11.19-16.11-17.48-.74-.94-2-1.94-1-3.46.12-2.56,1.55-4.29,3.32-6.05q29.21-29.05,58.27-58.24c1.65-1.65,3.54-3.13,3.34-5.82Z" transform="translate(-338.18 -239)"/>
    <path class="cls-49" d="M983.92,452.88c.22.24.45.7.66.69,10.1-.32,14.25,7.34,19.36,14,3,3.93,4.9,8.86,10.11,11.09,3.67,1.56,3.51,3.26.39,6.38-6.67,6.65-13.35,13.3-20,20-.72.73-2.63,1.21-1.39,3a229.26,229.26,0,0,1-17,17c-2.87-1.34-.41-2.6.27-3.44,2.09-2.57,4.67-4.72,6.92-7.16,3.92-4.25,3.68-5.48-.1-9.89-4.87-5.66-9.77-11.28-15.11-16.5-3.58-3.5-7-7.69-12.92-4a1,1,0,0,1-1.32-.31.69.69,0,0,1,.09-.87C963.69,472.66,973.63,462.6,983.92,452.88Z" transform="translate(-338.18 -239)"/>
    <path class="cls-50" d="M953.92,482.88c1.17,1.3,1.67-.11,2.32-.62,2.23-1.73,3.44-1.33,6.41,0,5.45,2.44,7.45,7.6,11.72,10.68,5.08,3.66,7.64,9.69,12.73,13.6,2.49,1.91.1,5.52-1.94,7.74-2.7,2.92-5.62,5.63-8.39,8.49-.55.57-1.95,1.1-.68,2.3A193.52,193.52,0,0,1,960,541.15c-1.39-5.76.3-11.68-.88-17.45.06-12.85-2.21-25.34-5.58-37.68-.26-.94-.41-1.92-.61-2.88Z" transform="translate(-338.18 -239)"/>
    <path class="cls-43" d="M959.14,523.7c1.47,5.76.17,11.65.88,17.45-.77,6.7.44,13.49-.91,20.16Z" transform="translate(-338.18 -239)"/>
    <path class="cls-4" d="M785.22,654c7.43,11.31,17.36,20.18,27.82,28.52.65,1.82.18,2.61-1.72,3.7A122.24,122.24,0,0,0,789,702H702.4c1.89-14.87,8-27.25,17.33-38.18,5-5.87,11.19-10.34,17.66-14.45a168,168,0,0,0,27.49-22c1.37-1.34,3.62-.31,4.16-2.42C773.69,635,778.36,645.1,785.22,654Z" transform="translate(-338.18 -239)"/>
    <path class="cls-5" d="M1400.91,511.2c4.74,5.64,6,12.61,7.06,19.54.72,4.69.77,9.48,1.12,14.22-.85,15.57-6.2,29.84-12.58,43.83-7.85,17.25-15.83,34.43-24.4,51.33-.9,1.76-2,3.42-3,5.13-3.52-4.78-1.38-9.92-.45-14.7,2.23-11.43,7.11-22,11.5-32.75,8.11-19.81,15-40,18.54-61.16a84.41,84.41,0,0,0,1.28-20.77C1399.84,514.21,1399.51,512.54,1400.91,511.2Z" transform="translate(-338.18 -239)"/>
    <path class="cls-12" d="M1371.88,701.92,1363,702c-.23-4.09,2.3-7.17,4.08-10.42,5.08-9.32,11.33-17.91,17.15-26.77,9-13.72,16.86-28,21.93-43.75,2.78,5,1.37,10.08.28,15-5.06,22.86-15.83,42.9-30.52,61-1,1.29-2,2.62-3,3.93Z" transform="translate(-338.18 -239)"/>
    <path class="cls-51" d="M1400.91,511.2c1.18,25.6-6,49.52-14.56,73.2-5.44,15-12.73,29.23-16.47,44.79-1.26,5.24-3.19,10.58-.78,16.06-.42.92-.83,1.85-1.25,2.77-2-7.92-1.17-15.76,1.16-23.42,4.26-14,10.77-27.14,15.58-40.91,6-17.17,11.76-34.37,13.7-52.7.8-7.51-.12-14.73-.3-22.08C1399.46,509,1400.17,510.14,1400.91,511.2Z" transform="translate(-338.18 -239)"/>
    <path class="cls-52" d="M1366,672.19c-1,5.84-4.33,10.08-9.17,14.18-4-11.34-1.07-20.35,6.13-28.44Q1364.49,665.07,1366,672.19Z" transform="translate(-338.18 -239)"/>
    <path class="cls-53" d="M1406.16,621.06c-1.26,10.12-6.59,18.59-11.1,27.4-7.62,14.93-18.36,27.89-26.56,42.45-2,3.59-3.68,7.39-5.5,11.09l-1.84,0c3.69-10.42,9.89-19.46,16-28.48,10.15-15,19.68-30.21,26.13-47.19.75-2,1.15-4.13,1.71-6.19Z" transform="translate(-338.18 -239)"/>
    <path class="cls-54" d="M1173.28,685.3c-3.36,1.11-6.83.67-10.27.76a59.4,59.4,0,0,1-7.68-18.75c-.93-4.68-.75-9.22,2.74-13.1,4.64-5.15,9.68-4.22,11.94,2.52,1.25,3.74,1.89,7.69,2.81,11.54Q1173,676.79,1173.28,685.3Z" transform="translate(-338.18 -239)"/>
    <path class="cls-55" d="M1186,683.05a25.62,25.62,0,0,1-8.6,1.8c-.65-9.9,2.5-18.26,10.31-26.2C1189.63,667.84,1187.18,675.4,1186,683.05Z" transform="translate(-338.18 -239)"/>
    <path class="cls-5" d="M1360.09,529.89c-4,4.77-5,11.09-8.71,16.89-1.94-6.37-2.27-12.39-3.38-18.25-2.1-11.1-1.32-22.45-3-33.59-.38-2.64,1.42-5.19.07-7.78,3.59-.37,5.28,2.16,7.12,4.57,3.47,4.54,3.46,10.33,5.68,15.3C1358.47,514.67,1360.34,522.18,1360.09,529.89Z" transform="translate(-338.18 -239)"/>
    <path class="cls-56" d="M1358.24,611.7q1.34-17.46,2.65-34.91c.14,2.07.29,4.15.43,6.23-1.92-8.25,4-11.08,9.67-13.92,2-1,3.62-3,6.09-3.07-3.68,12.06-8.77,23.57-13.78,35.09C1361.75,604.69,1361.37,608.87,1358.24,611.7Z" transform="translate(-338.18 -239)"/>
    <path class="cls-57" d="M495.13,523.9c1.58,4.52,1,9.25.71,13.8-.81,12-.51,24.25-3.75,36-4.37,5.5-10.35,9.18-15.6,14-3.31-3.69-4.39-7.52-2.55-12s3.8-8.73,7.13-12.43c5.82-6.47,9.69-14.3,13.44-22,1.26-2.6.43-6.21.51-9.37C495.09,529.22,495.09,526.56,495.13,523.9Z" transform="translate(-338.18 -239)"/>
    <path class="cls-58" d="M532.07,676.07A206.29,206.29,0,0,0,544.9,643h25.24l.36.89-13.75,10.86a209.54,209.54,0,0,0-20.64,18.65C535,674.56,533.94,676,532.07,676.07Z" transform="translate(-338.18 -239)"/>
    <path class="cls-59" d="M1150.77,685.85l-9.14.16c-1.39-2.45-2.88-4.85-4.12-7.38a12.2,12.2,0,0,1-1.29-6.27c.19-2.54.5-5.58,3.14-6.24s3.82,2.18,4.92,4.15A90.36,90.36,0,0,1,1150.77,685.85Z" transform="translate(-338.18 -239)"/>
    <path class="cls-1" d="M776,818c-21.15.72-38.83-16.63-38.73-38.35.11-22.52,15.82-38.81,38.59-39.37,21.07-.52,39.43,17.33,39.3,39.75C815.06,799.3,797.62,819.48,776,818Z" transform="translate(-338.18 -239)"/>
    <path class="cls-9" d="M1343.93,487.22c-.47,20.62.54,41.09,5.63,61.22,1.18,4.65-2.75,8.28-3.93,12.68-8.72-22.29-10.36-45.61-10.69-69.14C1337.55,489.68,1340.24,487.5,1343.93,487.22Z" transform="translate(-338.18 -239)"/>
    <path class="cls-43" d="M958,560c-8.19-8-17.92-13.6-28.31-18.16-2.12-.93-4.23-2-6.65-1.86,5.75-4,12.57-4.66,19.12-5.85,3.18-.57,6.51-.84,9.79-1.11,5.36-.44,6.06.28,6.07,5.61C958,545.78,958,552.91,958,560Z" transform="translate(-338.18 -239)"/>
  </g>
</svg>
